<svg xmlns="http://www.w3.org/2000/svg" width="22.031" height="17.875"><path d="M21.514 2.058a8.491 8.491 0 01-1.064.385 4.653 4.653 0 00.958-1.671.35.35 0 00-.117-.383.355.355 0 00-.4-.027 8.4 8.4 0 01-2.476.97 4.774 4.774 0 00-3.307-1.336 4.71 4.71 0 00-4.724 4.686 4.837 4.837 0 00.039.6 12.119 12.119 0 01-8.3-4.367.356.356 0 00-.582.045 4.661 4.661 0 00.485 5.394 4.162 4.162 0 01-.633-.281.358.358 0 00-.349 0 .35.35 0 00-.177.3v.063a4.692 4.692 0 002.308 4.033 3.648 3.648 0 01-.359-.051.358.358 0 00-.333.112.351.351 0 00-.072.341 4.706 4.706 0 003.461 3.141 8.408 8.408 0 01-4.467 1.264 8.774 8.774 0 01-1-.057.351.351 0 00-.233.645 12.816 12.816 0 006.888 2 12.291 12.291 0 009.5-4.137 13.045 13.045 0 003.291-8.545q0-.193-.006-.387a9.165 9.165 0 002.114-2.221.35.35 0 00-.024-.422.357.357 0 00-.421-.094z" fill="#3aaae3" fill-rule="evenodd"/></svg>