<svg xmlns="http://www.w3.org/2000/svg" width="14.688" height="25.312"><path data-name="Forma 1" d="M6.148 17.828a9.312 9.312 0 01-5.073-1.872 6.927 6.927 0 01-.536-.454 1.521 1.521 0 01-.2-2.116 1.42 1.42 0 011.92-.446 3.066 3.066 0 01.419.256 8.091 8.091 0 009.22.088 2.476 2.476 0 01.9-.48 1.391 1.391 0 011.615.666 1.449 1.449 0 01-.1 1.859 7.427 7.427 0 01-2.682 1.791 12.171 12.171 0 01-3.044.7c.157.177.23.264.328.366 1.41 1.463 2.825 2.921 4.229 4.389a1.481 1.481 0 01.315 1.7 1.666 1.666 0 01-1.565 1.01 1.507 1.507 0 01-.991-.525c-1.063-1.106-2.148-2.192-3.189-3.319-.3-.328-.449-.265-.717.019a211.225 211.225 0 01-3.251 3.375 1.335 1.335 0 01-1.646.305 1.729 1.729 0 01-.96-1.585 1.608 1.608 0 01.515-1.064q2.092-2.159 4.177-4.326c.096-.087.181-.188.316-.337zm1.155-5.016a6.407 6.407 0 116.231-6.321 6.309 6.309 0 01-6.231 6.321zm3.076-6.41a3.031 3.031 0 10-3.011 3.141 3.07 3.07 0 003.012-3.139z" fill="#ef8116" fill-rule="evenodd"/></svg>