<svg xmlns="http://www.w3.org/2000/svg" xmlns:xlink="http://www.w3.org/1999/xlink"><defs><filter id="a" x="200" y="771" width="9" height="6" filterUnits="userSpaceOnUse"><feFlood result="flood" flood-color="#f1d02f"/><feComposite result="composite" operator="in" in2="SourceGraphic"/><feBlend result="blend" in2="SourceGraphic"/></filter><filter id="a" x="200" y="771" width="9" height="6" filterUnits="userSpaceOnUse"><feFlood result="flood" flood-color="#f1d02f"/><feComposite result="composite" operator="in" in2="SourceGraphic"/><feBlend result="blend" in2="SourceGraphic"/></filter><filter id="a" x="200" y="771" width="9" height="6" filterUnits="userSpaceOnUse"><feFlood result="flood" flood-color="#f1d02f"/><feComposite result="composite" operator="in" in2="SourceGraphic"/><feBlend result="blend" in2="SourceGraphic"/></filter><filter id="a" x="200" y="771" width="9" height="6" filterUnits="userSpaceOnUse"><feFlood result="flood" flood-color="#f1d02f"/><feComposite result="composite" operator="in" in2="SourceGraphic"/><feBlend result="blend" in2="SourceGraphic"/></filter><style>.cls-1{fill:#414594;fill-rule:evenodd}</style><style>.cls-1{fill:#ef8116;fill-rule:evenodd}</style><style>.cls-1{fill:#3aaae3;fill-rule:evenodd}</style><style>.cls-1{font-size:20px;fill:#416da1;font-family:Roboto;font-weight:700}</style></defs><symbol id="icon-fb"><path d="M.407 13.472h2.865v11.43a.415.415 0 00.422.408h4.858a.414.414 0 00.42-.408V13.526h3.294a.416.416 0 00.418-.361l.5-4.208a.4.4 0 00-.105-.318.427.427 0 00-.314-.137H8.972V5.864a1.115 1.115 0 011.312-1.2h2.481a.415.415 0 00.421-.409V.394a.415.415 0 00-.421-.409H9.19A6.681 6.681 0 004.908 1.55a4.268 4.268 0 00-1.494 3.869v3.084H.406a.415.415 0 00-.421.409v4.153a.415.415 0 00.422.407z" fill="#414594" fill-rule="evenodd"/></symbol><symbol id="icon-ok"><path data-name="Forma 1" d="M6.148 17.828a9.312 9.312 0 01-5.073-1.872 6.927 6.927 0 01-.536-.454 1.521 1.521 0 01-.2-2.116 1.42 1.42 0 011.92-.446 3.066 3.066 0 01.419.256 8.091 8.091 0 009.22.088 2.476 2.476 0 01.9-.48 1.391 1.391 0 011.615.666 1.449 1.449 0 01-.1 1.859 7.427 7.427 0 01-2.682 1.791 12.171 12.171 0 01-3.044.7c.157.177.23.264.328.366 1.41 1.463 2.825 2.921 4.229 4.389a1.481 1.481 0 01.315 1.7 1.666 1.666 0 01-1.565 1.01 1.507 1.507 0 01-.991-.525c-1.063-1.106-2.148-2.192-3.189-3.319-.3-.328-.449-.265-.717.019a211.225 211.225 0 01-3.251 3.375 1.335 1.335 0 01-1.646.305 1.729 1.729 0 01-.96-1.585 1.608 1.608 0 01.515-1.064q2.092-2.159 4.177-4.326c.096-.087.181-.188.316-.337zm1.155-5.016a6.407 6.407 0 116.231-6.321 6.309 6.309 0 01-6.231 6.321zm3.076-6.41a3.031 3.031 0 10-3.011 3.141 3.07 3.07 0 003.012-3.139z" fill="#ef8116" fill-rule="evenodd"/></symbol><symbol id="icon-twitter"><path d="M21.514 2.058a8.491 8.491 0 01-1.064.385 4.653 4.653 0 00.958-1.671.35.35 0 00-.117-.383.355.355 0 00-.4-.027 8.4 8.4 0 01-2.476.97 4.774 4.774 0 00-3.307-1.336 4.71 4.71 0 00-4.724 4.686 4.837 4.837 0 00.039.6 12.119 12.119 0 01-8.3-4.367.356.356 0 00-.582.045 4.661 4.661 0 00.485 5.394 4.162 4.162 0 01-.633-.281.358.358 0 00-.349 0 .35.35 0 00-.177.3v.063a4.692 4.692 0 002.308 4.033 3.648 3.648 0 01-.359-.051.358.358 0 00-.333.112.351.351 0 00-.072.341 4.706 4.706 0 003.461 3.141 8.408 8.408 0 01-4.467 1.264 8.774 8.774 0 01-1-.057.351.351 0 00-.233.645 12.816 12.816 0 006.888 2 12.291 12.291 0 009.5-4.137 13.045 13.045 0 003.291-8.545q0-.193-.006-.387a9.165 9.165 0 002.114-2.221.35.35 0 00-.024-.422.357.357 0 00-.421-.094z" fill="#3aaae3" fill-rule="evenodd"/></symbol><symbol id="icon-up"><path data-name="&gt;" d="M207.7 776.625a.77.77 0 00.661.378.574.574 0 00.644-.39 1.369 1.369 0 00-.313-.578l-3.394-4.606a.965.965 0 00-1.6 0l-3.393 4.606a1.369 1.369 0 00-.313.578.574.574 0 00.644.39.77.77 0 00.661-.378l3.2-4.393z" transform="translate(-200 -771)" fill="#fff" fill-rule="evenodd" filter="url(#a)"/></symbol><symbol id="icon-vk"><text transform="matrix(1.469 0 0 1.488 -1.063 21.305)" font-size="20" fill="#416da1" font-family="Roboto" font-weight="700">B</text></symbol><symbol id="sprite"><symbol id="icon-fb"><path d="M.407 13.472h2.865v11.43a.415.415 0 00.422.408h4.858a.414.414 0 00.42-.408V13.526h3.294a.416.416 0 00.418-.361l.5-4.208a.4.4 0 00-.105-.318.427.427 0 00-.314-.137H8.972V5.864a1.115 1.115 0 011.312-1.2h2.481a.415.415 0 00.421-.409V.394a.415.415 0 00-.421-.409H9.19A6.681 6.681 0 004.908 1.55a4.268 4.268 0 00-1.494 3.869v3.084H.406a.415.415 0 00-.421.409v4.153a.415.415 0 00.422.407z" fill="#414594" fill-rule="evenodd"/></symbol><symbol id="icon-ok"><path data-name="Forma 1" d="M6.148 17.828a9.312 9.312 0 01-5.073-1.872 6.927 6.927 0 01-.536-.454 1.521 1.521 0 01-.2-2.116 1.42 1.42 0 011.92-.446 3.066 3.066 0 01.419.256 8.091 8.091 0 009.22.088 2.476 2.476 0 01.9-.48 1.391 1.391 0 011.615.666 1.449 1.449 0 01-.1 1.859 7.427 7.427 0 01-2.682 1.791 12.171 12.171 0 01-3.044.7c.157.177.23.264.328.366 1.41 1.463 2.825 2.921 4.229 4.389a1.481 1.481 0 01.315 1.7 1.666 1.666 0 01-1.565 1.01 1.507 1.507 0 01-.991-.525c-1.063-1.106-2.148-2.192-3.189-3.319-.3-.328-.449-.265-.717.019a211.225 211.225 0 01-3.251 3.375 1.335 1.335 0 01-1.646.305 1.729 1.729 0 01-.96-1.585 1.608 1.608 0 01.515-1.064q2.092-2.159 4.177-4.326c.096-.087.181-.188.316-.337zm1.155-5.016a6.407 6.407 0 116.231-6.321 6.309 6.309 0 01-6.231 6.321zm3.076-6.41a3.031 3.031 0 10-3.011 3.141 3.07 3.07 0 003.012-3.139z" fill="#ef8116" fill-rule="evenodd"/></symbol><symbol id="icon-twitter"><path d="M21.514 2.058a8.491 8.491 0 01-1.064.385 4.653 4.653 0 00.958-1.671.35.35 0 00-.117-.383.355.355 0 00-.4-.027 8.4 8.4 0 01-2.476.97 4.774 4.774 0 00-3.307-1.336 4.71 4.71 0 00-4.724 4.686 4.837 4.837 0 00.039.6 12.119 12.119 0 01-8.3-4.367.356.356 0 00-.582.045 4.661 4.661 0 00.485 5.394 4.162 4.162 0 01-.633-.281.358.358 0 00-.349 0 .35.35 0 00-.177.3v.063a4.692 4.692 0 002.308 4.033 3.648 3.648 0 01-.359-.051.358.358 0 00-.333.112.351.351 0 00-.072.341 4.706 4.706 0 003.461 3.141 8.408 8.408 0 01-4.467 1.264 8.774 8.774 0 01-1-.057.351.351 0 00-.233.645 12.816 12.816 0 006.888 2 12.291 12.291 0 009.5-4.137 13.045 13.045 0 003.291-8.545q0-.193-.006-.387a9.165 9.165 0 002.114-2.221.35.35 0 00-.024-.422.357.357 0 00-.421-.094z" fill="#3aaae3" fill-rule="evenodd"/></symbol><symbol id="icon-up"><path data-name="&gt;" d="M207.7 776.625a.77.77 0 00.661.378.574.574 0 00.644-.39 1.369 1.369 0 00-.313-.578l-3.394-4.606a.965.965 0 00-1.6 0l-3.393 4.606a1.369 1.369 0 00-.313.578.574.574 0 00.644.39.77.77 0 00.661-.378l3.2-4.393z" transform="translate(-200 -771)" fill="#fff" fill-rule="evenodd" filter="url(#a)"/></symbol><symbol id="icon-vk"><text transform="matrix(1.469 0 0 1.488 -1.063 21.305)" font-size="20" fill="#416da1" font-family="Roboto" font-weight="700">B</text></symbol><symbol id="sprite"><symbol id="icon-fb"><path d="M.407 13.472h2.865v11.43a.415.415 0 00.422.408h4.858a.414.414 0 00.42-.408V13.526h3.294a.416.416 0 00.418-.361l.5-4.208a.4.4 0 00-.105-.318.427.427 0 00-.314-.137H8.972V5.864a1.115 1.115 0 011.312-1.2h2.481a.415.415 0 00.421-.409V.394a.415.415 0 00-.421-.409H9.19A6.681 6.681 0 004.908 1.55a4.268 4.268 0 00-1.494 3.869v3.084H.406a.415.415 0 00-.421.409v4.153a.415.415 0 00.422.407z" fill="#414594" fill-rule="evenodd"/></symbol><symbol id="icon-ok"><path data-name="Forma 1" d="M6.148 17.828a9.312 9.312 0 01-5.073-1.872 6.927 6.927 0 01-.536-.454 1.521 1.521 0 01-.2-2.116 1.42 1.42 0 011.92-.446 3.066 3.066 0 01.419.256 8.091 8.091 0 009.22.088 2.476 2.476 0 01.9-.48 1.391 1.391 0 011.615.666 1.449 1.449 0 01-.1 1.859 7.427 7.427 0 01-2.682 1.791 12.171 12.171 0 01-3.044.7c.157.177.23.264.328.366 1.41 1.463 2.825 2.921 4.229 4.389a1.481 1.481 0 01.315 1.7 1.666 1.666 0 01-1.565 1.01 1.507 1.507 0 01-.991-.525c-1.063-1.106-2.148-2.192-3.189-3.319-.3-.328-.449-.265-.717.019a211.225 211.225 0 01-3.251 3.375 1.335 1.335 0 01-1.646.305 1.729 1.729 0 01-.96-1.585 1.608 1.608 0 01.515-1.064q2.092-2.159 4.177-4.326c.096-.087.181-.188.316-.337zm1.155-5.016a6.407 6.407 0 116.231-6.321 6.309 6.309 0 01-6.231 6.321zm3.076-6.41a3.031 3.031 0 10-3.011 3.141 3.07 3.07 0 003.012-3.139z" fill="#ef8116" fill-rule="evenodd"/></symbol><symbol id="icon-twitter"><path d="M21.514 2.058a8.491 8.491 0 01-1.064.385 4.653 4.653 0 00.958-1.671.35.35 0 00-.117-.383.355.355 0 00-.4-.027 8.4 8.4 0 01-2.476.97 4.774 4.774 0 00-3.307-1.336 4.71 4.71 0 00-4.724 4.686 4.837 4.837 0 00.039.6 12.119 12.119 0 01-8.3-4.367.356.356 0 00-.582.045 4.661 4.661 0 00.485 5.394 4.162 4.162 0 01-.633-.281.358.358 0 00-.349 0 .35.35 0 00-.177.3v.063a4.692 4.692 0 002.308 4.033 3.648 3.648 0 01-.359-.051.358.358 0 00-.333.112.351.351 0 00-.072.341 4.706 4.706 0 003.461 3.141 8.408 8.408 0 01-4.467 1.264 8.774 8.774 0 01-1-.057.351.351 0 00-.233.645 12.816 12.816 0 006.888 2 12.291 12.291 0 009.5-4.137 13.045 13.045 0 003.291-8.545q0-.193-.006-.387a9.165 9.165 0 002.114-2.221.35.35 0 00-.024-.422.357.357 0 00-.421-.094z" fill="#3aaae3" fill-rule="evenodd"/></symbol><symbol id="icon-up"><path data-name="&gt;" d="M207.7 776.625a.77.77 0 00.661.378.574.574 0 00.644-.39 1.369 1.369 0 00-.313-.578l-3.394-4.606a.965.965 0 00-1.6 0l-3.393 4.606a1.369 1.369 0 00-.313.578.574.574 0 00.644.39.77.77 0 00.661-.378l3.2-4.393z" transform="translate(-200 -771)" fill="#fff" fill-rule="evenodd" filter="url(#a)"/></symbol><symbol id="icon-vk"><text transform="matrix(1.469 0 0 1.488 -1.063 21.305)" font-size="20" fill="#416da1" font-family="Roboto" font-weight="700">B</text></symbol><symbol id="sprite"><symbol id="icon-fb"><path d="M.407 13.472h2.865v11.43a.415.415 0 00.422.408h4.858a.414.414 0 00.42-.408V13.526h3.294a.416.416 0 00.418-.361l.5-4.208a.4.4 0 00-.105-.318.427.427 0 00-.314-.137H8.972V5.864a1.115 1.115 0 011.312-1.2h2.481a.415.415 0 00.421-.409V.394a.415.415 0 00-.421-.409H9.19A6.681 6.681 0 004.908 1.55a4.268 4.268 0 00-1.494 3.869v3.084H.406a.415.415 0 00-.421.409v4.153a.415.415 0 00.422.407z" fill="#414594" fill-rule="evenodd"/></symbol><symbol id="icon-ok"><path data-name="Forma 1" d="M6.148 17.828a9.312 9.312 0 01-5.073-1.872 6.927 6.927 0 01-.536-.454 1.521 1.521 0 01-.2-2.116 1.42 1.42 0 011.92-.446 3.066 3.066 0 01.419.256 8.091 8.091 0 009.22.088 2.476 2.476 0 01.9-.48 1.391 1.391 0 011.615.666 1.449 1.449 0 01-.1 1.859 7.427 7.427 0 01-2.682 1.791 12.171 12.171 0 01-3.044.7c.157.177.23.264.328.366 1.41 1.463 2.825 2.921 4.229 4.389a1.481 1.481 0 01.315 1.7 1.666 1.666 0 01-1.565 1.01 1.507 1.507 0 01-.991-.525c-1.063-1.106-2.148-2.192-3.189-3.319-.3-.328-.449-.265-.717.019a211.225 211.225 0 01-3.251 3.375 1.335 1.335 0 01-1.646.305 1.729 1.729 0 01-.96-1.585 1.608 1.608 0 01.515-1.064q2.092-2.159 4.177-4.326c.096-.087.181-.188.316-.337zm1.155-5.016a6.407 6.407 0 116.231-6.321 6.309 6.309 0 01-6.231 6.321zm3.076-6.41a3.031 3.031 0 10-3.011 3.141 3.07 3.07 0 003.012-3.139z" fill="#ef8116" fill-rule="evenodd"/></symbol><symbol id="icon-twitter"><path d="M21.514 2.058a8.491 8.491 0 01-1.064.385 4.653 4.653 0 00.958-1.671.35.35 0 00-.117-.383.355.355 0 00-.4-.027 8.4 8.4 0 01-2.476.97 4.774 4.774 0 00-3.307-1.336 4.71 4.71 0 00-4.724 4.686 4.837 4.837 0 00.039.6 12.119 12.119 0 01-8.3-4.367.356.356 0 00-.582.045 4.661 4.661 0 00.485 5.394 4.162 4.162 0 01-.633-.281.358.358 0 00-.349 0 .35.35 0 00-.177.3v.063a4.692 4.692 0 002.308 4.033 3.648 3.648 0 01-.359-.051.358.358 0 00-.333.112.351.351 0 00-.072.341 4.706 4.706 0 003.461 3.141 8.408 8.408 0 01-4.467 1.264 8.774 8.774 0 01-1-.057.351.351 0 00-.233.645 12.816 12.816 0 006.888 2 12.291 12.291 0 009.5-4.137 13.045 13.045 0 003.291-8.545q0-.193-.006-.387a9.165 9.165 0 002.114-2.221.35.35 0 00-.024-.422.357.357 0 00-.421-.094z" fill="#3aaae3" fill-rule="evenodd"/></symbol><symbol id="icon-up"><path data-name="&gt;" d="M207.7 776.625a.77.77 0 00.661.378.574.574 0 00.644-.39 1.369 1.369 0 00-.313-.578l-3.394-4.606a.965.965 0 00-1.6 0l-3.393 4.606a1.369 1.369 0 00-.313.578.574.574 0 00.644.39.77.77 0 00.661-.378l3.2-4.393z" transform="translate(-200 -771)" fill="#fff" fill-rule="evenodd" filter="url(#a)"/></symbol><symbol id="icon-vk"><text transform="matrix(1.469 0 0 1.488 -1.063 21.305)" font-size="20" fill="#416da1" font-family="Roboto" font-weight="700">B</text></symbol><symbol id="sprite"><symbol id="icon-fb"><path d="M.407 13.472h2.865v11.43a.415.415 0 00.422.408h4.858a.414.414 0 00.42-.408V13.526h3.294a.416.416 0 00.418-.361l.5-4.208a.4.4 0 00-.105-.318.427.427 0 00-.314-.137H8.972V5.864a1.115 1.115 0 011.312-1.2h2.481a.415.415 0 00.421-.409V.394a.415.415 0 00-.421-.409H9.19A6.681 6.681 0 004.908 1.55a4.268 4.268 0 00-1.494 3.869v3.084H.406a.415.415 0 00-.421.409v4.153a.415.415 0 00.422.407z" fill="#414594" fill-rule="evenodd"/></symbol><symbol id="icon-ok"><path data-name="Forma 1" d="M6.148 17.828a9.312 9.312 0 01-5.073-1.872 6.927 6.927 0 01-.536-.454 1.521 1.521 0 01-.2-2.116 1.42 1.42 0 011.92-.446 3.066 3.066 0 01.419.256 8.091 8.091 0 009.22.088 2.476 2.476 0 01.9-.48 1.391 1.391 0 011.615.666 1.449 1.449 0 01-.1 1.859 7.427 7.427 0 01-2.682 1.791 12.171 12.171 0 01-3.044.7c.157.177.23.264.328.366 1.41 1.463 2.825 2.921 4.229 4.389a1.481 1.481 0 01.315 1.7 1.666 1.666 0 01-1.565 1.01 1.507 1.507 0 01-.991-.525c-1.063-1.106-2.148-2.192-3.189-3.319-.3-.328-.449-.265-.717.019a211.225 211.225 0 01-3.251 3.375 1.335 1.335 0 01-1.646.305 1.729 1.729 0 01-.96-1.585 1.608 1.608 0 01.515-1.064q2.092-2.159 4.177-4.326c.096-.087.181-.188.316-.337zm1.155-5.016a6.407 6.407 0 116.231-6.321 6.309 6.309 0 01-6.231 6.321zm3.076-6.41a3.031 3.031 0 10-3.011 3.141 3.07 3.07 0 003.012-3.139z" fill="#ef8116" fill-rule="evenodd"/></symbol><symbol id="icon-twitter"><path d="M21.514 2.058a8.491 8.491 0 01-1.064.385 4.653 4.653 0 00.958-1.671.35.35 0 00-.117-.383.355.355 0 00-.4-.027 8.4 8.4 0 01-2.476.97 4.774 4.774 0 00-3.307-1.336 4.71 4.71 0 00-4.724 4.686 4.837 4.837 0 00.039.6 12.119 12.119 0 01-8.3-4.367.356.356 0 00-.582.045 4.661 4.661 0 00.485 5.394 4.162 4.162 0 01-.633-.281.358.358 0 00-.349 0 .35.35 0 00-.177.3v.063a4.692 4.692 0 002.308 4.033 3.648 3.648 0 01-.359-.051.358.358 0 00-.333.112.351.351 0 00-.072.341 4.706 4.706 0 003.461 3.141 8.408 8.408 0 01-4.467 1.264 8.774 8.774 0 01-1-.057.351.351 0 00-.233.645 12.816 12.816 0 006.888 2 12.291 12.291 0 009.5-4.137 13.045 13.045 0 003.291-8.545q0-.193-.006-.387a9.165 9.165 0 002.114-2.221.35.35 0 00-.024-.422.357.357 0 00-.421-.094z" fill="#3aaae3" fill-rule="evenodd"/></symbol><symbol id="icon-vk"><text transform="matrix(1.469 0 0 1.488 -1.063 21.305)" font-size="20" fill="#416da1" font-family="Roboto" font-weight="700">B</text></symbol><symbol id="sprite"><symbol id="icon-fb" viewBox="0 0 13.188 25.312"><path class="cls-1" d="M115.313 360.191h2.865v11.43a.415.415 0 00.422.408h4.858a.414.414 0 00.42-.408v-11.376h3.294a.416.416 0 00.418-.361l.5-4.208a.4.4 0 00-.105-.318.427.427 0 00-.314-.137h-3.793v-2.638a1.115 1.115 0 011.312-1.2h2.481a.415.415 0 00.421-.409v-3.861a.415.415 0 00-.421-.409h-3.575a6.681 6.681 0 00-4.282 1.565 4.268 4.268 0 00-1.494 3.869v3.084h-3.008a.415.415 0 00-.421.409v4.153a.415.415 0 00.422.407z" transform="translate(-114.906 -346.719)"/></symbol><symbol id="icon-ok" viewBox="0 0 14.688 25.312"><path id="Forma_1" data-name="Forma 1" class="cls-1" d="M50.679 364.016a9.312 9.312 0 01-5.073-1.872 6.927 6.927 0 01-.536-.454 1.521 1.521 0 01-.2-2.116 1.42 1.42 0 011.92-.446 3.066 3.066 0 01.419.256 8.091 8.091 0 009.22.088 2.476 2.476 0 01.9-.48 1.391 1.391 0 011.615.666 1.449 1.449 0 01-.1 1.859 7.427 7.427 0 01-2.682 1.791 12.171 12.171 0 01-3.044.7c.157.177.23.264.328.366 1.41 1.463 2.825 2.921 4.229 4.389a1.481 1.481 0 01.315 1.7 1.666 1.666 0 01-1.565 1.01 1.507 1.507 0 01-.991-.525c-1.063-1.106-2.148-2.192-3.189-3.319-.3-.328-.449-.265-.717.019a211.225 211.225 0 01-3.251 3.375 1.335 1.335 0 01-1.646.305 1.729 1.729 0 01-.96-1.585 1.608 1.608 0 01.515-1.064q2.092-2.159 4.177-4.326c.096-.087.181-.188.316-.337zM51.834 359a6.407 6.407 0 116.231-6.321A6.309 6.309 0 0151.834 359zm3.076-6.41a3.031 3.031 0 10-3.011 3.141 3.07 3.07 0 003.012-3.139z" transform="translate(-44.531 -346.188)"/></symbol><symbol id="icon-twitter" viewBox="0 0 22.031 17.875"><path class="cls-1" d="M204.139 353.089a8.491 8.491 0 01-1.064.385 4.653 4.653 0 00.958-1.671.35.35 0 00-.117-.383.355.355 0 00-.4-.027 8.4 8.4 0 01-2.476.97 4.774 4.774 0 00-3.307-1.336 4.71 4.71 0 00-4.724 4.686 4.837 4.837 0 00.039.6 12.119 12.119 0 01-8.3-4.367.356.356 0 00-.582.045 4.661 4.661 0 00.485 5.394 4.162 4.162 0 01-.633-.281.358.358 0 00-.349 0 .35.35 0 00-.177.3v.063a4.692 4.692 0 002.308 4.033 3.648 3.648 0 01-.359-.051.358.358 0 00-.333.112.351.351 0 00-.072.341 4.706 4.706 0 003.461 3.141 8.408 8.408 0 01-4.467 1.264 8.774 8.774 0 01-1-.057.351.351 0 00-.233.645 12.816 12.816 0 006.888 2 12.291 12.291 0 009.5-4.137 13.045 13.045 0 003.291-8.545q0-.193-.006-.387a9.165 9.165 0 002.114-2.221.35.35 0 00-.024-.422.357.357 0 00-.421-.094z" transform="translate(-182.625 -351.031)"/></symbol><symbol id="icon-vk" viewBox="0 0 17 22"><text id="B" class="cls-1" transform="matrix(1.469 0 0 1.488 -1.063 21.305)">B</text></symbol></symbol></symbol></symbol></symbol></symbol></svg>